<svg width="879" height="232" viewBox="0 0 879 232" fill="none" xmlns="http://www.w3.org/2000/svg">
<path d="M568.92 77.63V39.47H564.41C530.37 39.47 514.82 76.24 513.61 79.93V42.3H474.76V118.63H465.13V108.77C465.13 66.35 438.23 38.06 391.94 38.06C339.67 38.06 314.24 72 314.24 112.99V118.67H306.13V108.74C306.13 66.32 279.23 38.03 232.94 38.03C180.67 38.03 155.24 71.97 155.24 112.95V118.66H136.39C136.39 131.09 140.34 142.58 145.91 152.6L146.57 153.75C158.52 174.22 180.81 187.93 214.04 187.93C260.34 187.93 279.79 163.91 285.76 137.02H246.91C243.92 151.16 233.49 162.47 215.56 162.47C194.64 162.47 178.79 150.01 177.01 118.66H295.39C295.39 157.3 323.19 187.92 373.07 187.93C419.35 187.93 438.79 163.91 444.77 137.02H405.92C402.93 151.16 392.5 162.47 374.57 162.47C353.66 162.47 337.81 150.01 336.03 118.69H455.92V183.68H494.77V118.66H513.62C513.62 87.49 538.74 77.63 558.45 77.63H568.93H568.92ZM196.77 95.98C201.53 71.39 216.78 63.48 232.94 63.48C250.87 63.48 264.29 73.36 265.81 95.98H196.77ZM355.77 96.02C360.53 71.43 375.78 63.52 391.94 63.52C409.87 63.52 423.29 73.39 424.81 96.02H355.77Z" fill="white"/>
<path d="M835.13 42.38L808.88 118.66H790.03L781.37 144.37L771.2 118.64H790.06L760.22 42.29H716.91L750.94 118.62H732.09L761.06 183.67H742.23C734.53 199.72 699.72 196.2 699.72 196.2V231.83C769.54 231.83 784.62 183.68 784.62 183.68H803.45L829.13 118.78H847.99L878.43 42.38H835.12H835.13Z" fill="white"/>
<path d="M373.09 187.93H373.07C373.07 187.93 373.05 187.93 373.04 187.93H373.09Z" fill="white"/>
<path d="M628.25 187.9C628.25 187.9 628.22 187.9 628.2 187.9C628.18 187.9 628.17 187.9 628.15 187.9H628.25Z" fill="white"/>
<path d="M705.55 118.63H724.4V112.95C724.4 72.14 700.56 38.03 646.9 38.03C593.24 38.03 569.4 71.97 569.4 112.95V118.66H550.55C550.55 156.85 576.82 187.88 628.2 187.9C679.27 187.88 705.54 157.19 705.54 118.64L705.55 118.63ZM684.18 118.63H665.23C663.46 151.13 646.39 162.44 628.2 162.44C610.01 162.44 592.64 151.16 590.87 118.66H609.71V112.95C609.71 76.18 627.59 63.48 646.94 63.48C666.29 63.48 684.17 76.18 684.17 112.95V118.63H684.18Z" fill="white"/>
<path d="M40.32 118.79H59.17V42.45H78.02L78.04 0H37.72L37.7 42.45H18.85V118.79H0V183.8H137.76V152.68H40.32V118.79Z" fill="white"/>
</svg>
