<?xml version="1.0" encoding="UTF-8"?>
<svg id="Calque_1" xmlns="http://www.w3.org/2000/svg" viewBox="0 0 1920 1080">
  <defs>
    <style>
      .cls-1 {
        fill: #fff;
        fill-rule: evenodd;
      }

      .cls-2 {
        fill: #ed1c35;
      }
    </style>
  </defs>
  <path class="cls-2" d="M1863.12,768.14c-2.23-2.92-22.63-18.14-22.63-18.14-.27-3.97-2.23-4.93-4.15-6.05-1.96-1.12-11.38-4.38-13.48-7.03-16.24-20.25-27.55-22.45-27.55-22.45l-1.96-2.65c-7.77-10.29-23.61-17.05-23.61-17.05-1.66-6.45-24.55-22.32-33.67-29.42-9.15-7.17-11.11-8.56-16.38-14.2-5.27-5.64-19.42-22.69-36.84-39.91-5-4.93-14.02-8.7-14.02-8.7,0,0-5.97-3.97-12.63-11.69-6.65-7.71-61.7-78.16-61.7-78.16,7.5-15.86-5.84-29.55-7.36-32.2,5.13-23.51-8.61-51.6-8.61-51.6.71-13.21,21.24-34.99,41.3-59.18,21.38-25.58,36.84-52.31,39.62-55.71,4.59-5.77,19.01-6.9,19.01-6.9,10.13,8.97,19.86,13.08,25,14.88,5.27,1.8,22.62,2.92,22.62,2.92,0,0,5.41,4.79,9.86,7.98l4.29,3.06-73.62-3.7-4.86,9.51,25.8.27s52.27,2.38,55.31,2.79c3.21.41,11.24,2.07,11.24,2.07,2.37,2.78,9.16,5.64,9.16,5.64-1.66,3.26-1.66,8.29,2.09,10.7,3.75,2.51,8.75,2.51,9.86,1.94,1.25-.54.85.14,2.1,2.65,1.38,2.51,3.75,2.92,4.99,2.24,1.25-.68,1.66-2.24,1.96-3.4.54-2.79-3.88-11.41-4.45-12.53-4.02-8.15,1.66-12.23,5.4-2.38,1.39,3.84,6.52,8.83,6.65,12.23.13,3.26.71,4.65,3.75,5.23,4.45.85,6.11-.99,7.09-1.66.98-.68,2.5-2.51,4.02-3.7,1.52-1.19,4.29-2.07,4.73-4.25,0-3.7,6.52-9.1,5.97-12.09-.98-2.92-.71-9.68,0-12.23.71-2.65,1.82-5.23-.54-9.68-2.5-4.38-8.61-7.85-8.61-7.85,0,0-5.97-10.97-13.03-19.97-7.09-8.97-9.43-14.88-14.02-22.66-3.75-7.71-12.09-16.61-20.67-28.23-8.61-11.41-6.92-14.33-6.39-20.52.28-4.65-2.23-6.45-3.88-8.56-8.61-6.9-18.33-16.75-18.33-16.75-5.4-5.5-10-12.67-21.79-21.06-4.45-13.08-17.49-23.51-17.49-23.51-1.52-8.29-3.75-8.7-3.75-8.7-1.82,5.37,2.23,22.05,2.23,22.05l-11.96-12.36c-4.46-18.28-6.25-17.05-6.25-17.05l-1.11,1.39c-1.12,1.39-1.12,4.52-1.12,4.52,0,0-.54,7.98-1.12,13.35-.4,5.37,5.41,17.32,5.41,17.32l-9.59,6.32c-15.27-9.68-20.12,3.97-20.12,3.97l-6.25,2.24c-10.84-4.65-15.67,7.98-15.67,7.98,0,0-4.72-1.26-9.15-.54-4.46.68-5,6.05-5,6.05h-13.17c23.3,16.92,47.55,41.24,53.22,42.5,9.02,1.94,10.97,1.53,8.48,10.09-2.37,8.56,4.59,17.19,2.9,19.67-3.48,6.45-6.65,11.55-9.72,15.01-2.64,2.92-2.77,4.93-7.5,3.84,1.38,2.65-.13,10.97-6.25,9.1-6.39-1.94-10.13,1.39-10.13,1.39-9.29,4.65-14.72-7.34-16.92-11.18-2.09-3.84-6.25-4.89-14.73-5.3-8.34-.54-21.91-2.24-48.09-9.89-29.79,8.29-68.08-8.83-68.08-8.83l-94.39,88.9c3.61,18.28,2.63,31.66-13.61,59.89,10.84,28.09-3.04,37.4-3.04,37.4,0,0,31.17,17.6,40.87,23.91,9.86,6.32,53.36,19.53,59.06,25.72,5.54,6.05,16.11,9.41,16.79,21.84.71,12.23-3.21,16.34-8.04,25.44-4.86,9.1-10.27,11.28-10.27,11.28,0,0-28.6,46.67-31.44,63.69-.84,4.79-2.5,8.56-4.45,11.69-.54,6.45-.54,12.23,0,17.32,1.79,13.89,4.02,26.16,2.23,29.83-4.59,10.02-6.65,11.28-6.65,11.28l-47.24,7.03c-1.52-1.12-10-3.84-15.67-3.26-5.68.58-8.48,6.32-11.25,7.98-2.77,1.66-8.17-2.24-9.72-3.7-1.66-1.53-5.4-2.21-5.4-2.21,0,0-3.34-10.02-4.02-12.23-.71-2.07-2.23-1.12-2.23-1.12,0,0-2.77.85-4.59,1.66-1.79.68-16.25,5.5-18.61,6.18-2.23.71-11.65,3.53-15.54,4.79-3.88,1.26-3.03,2.65-3.03,2.65l1.38,1.12c1.39,1.26,19.28,11.41,19.28,11.41.13,6.9,6.52,7.58,7.91,7.44,1.39-.14,7.5-.68,7.5-.68,6.39,7.58,23.88,9.1,23.88,9.1,0,0,4.72,3.97,7.36,3.84,2.5-.14,8.34-1.8,10.4-2.65,1.96-.85,7.63-3.06,7.63-3.06,0,0,64.74-10.56,71.42-11.01,4.16-.14,6.65-.27,6.65-.27,0,0,12.23-21.91,12.09-28.36-.27-7.85-.54-14.2.54-21.37,1.66-10.7,16.92-47.22,20.4-74.97,1.96-15.15,14.59-40.63,20.4-51.74,5.13,1.8,10.13,2.79,14.01,4.38,11.96,12.67,29.79,14.88,29.79,14.88,0,0,12.49,7.44,16.25,12.67,3.75,5.06,18.03,14.33,24.28,18,4.29,2.65,28.68,18,38.4,23.1,6.65,3.4,7.09,4.25,8.48,5.64,8.21,7.98,34.21,27.82,35.73,29.08,1.52,1.26,8.17,3.84,12.23,4.11,4.02.27,9.02,4.25,18.17,11.14,9.16,6.9,35.6,31.66,41.57,36.99,5.97,5.37,11.38,13.49,12.36,16.2.98,2.79,1.12,8.29,5.97,12.53,5.68,4.93,10,2.79,12.09,2.38,1.96-.41,6.12-1.8,12.23,1.39,6.12,3.19,11.38,8.15,12.36,10.7.98,2.65,4.16,13.62,6.39,18.31,2.23,4.52,4.73,5.37,6.92,4.79,2.23-.41,2.5,1.8,2.5,1.8,0,0,1.25,6.76,1.79,9.24.4,2.51,1.66,1.8,1.66,1.8,0,0,2.37-.27,2.77-.41.27-.14,38.94-10.84,40.32-11.28,1.38-.41,2.23-.27,2.36-1.26.13-1.39-1.39-2.07-1.39-2.07l.07-.2Z"/>
  <path class="cls-1" d="M1145.63,361.9l.03.03c-37.96,0-56.97,16.92-64.06,42.29-5.13,18.65-45.05,161.05-56.43,201.41-.68,2.55-3.44,11.38-10.53,15.42-10.27,5.71-30.97,14.4-61.57,14.4-22.63,0-38.1-6.52-47.11-12.02-10.27-6.22-7.58-16.03-6.79-18.9.06-.23.11-.42.14-.56l67.41-242.03h-20.4c-38.09,0-57.27,16.92-64.06,42.15l-.97,3.62c-7.4,27.57-39.58,147.42-51.44,189.87-13.88,49.73,25.87,96.95,107.42,96.95,89.4,0,144.17-31.9,160.68-91.58,26.92-97.63,51.27-186.59,65.86-241.05h-18.17ZM374.82,361.9H109.04c-1.96,10.36,1.79,19.74,22.09,24.76,7.31,1.78,17.12,4.31,26.15,6.65,12.25,3.17,23.04,5.96,24.17,5.96-58.43,213.91-73.68,271.27-78.82,290.61l-.95,3.56h19.99c37.96,0,57.55-17.53,63.93-42.29,5.71-21.98,20.97-77.89,20.97-77.89h112.63c67.4,0,115.36-72.83,115.36-142.71.14-59.55-30.33-68.65-59.74-68.65ZM333.92,514.69c-5.1,5.06-13.33,5.1-13.61,5.1h-99.52l26.58-99.47h98.14s11.65-.14,14.28,14.4c4.02,26.63-5.54,59.55-25.97,79.96h.1ZM829.95,362.03c-30.12,0-52.82,5.91-64.06,19.46-6.96,8.42-155.68,191.76-155.68,191.76,0,0-48.53-164.28-53.53-180.68-6.25-20.99-20.84-30.68-47.82-30.68h-15.73l-90.88,331.44h19.01c35.46,0,53.09-17.53,59.74-42.16l2.1-7.77c5.4-19.91,13.77-50.81,25.32-93.77,6.11-22.76,10.98-44.74,10.98-44.74,0,0,38.22,129.69,42.25,143.69,3.17,11.21,8.17,13.28,19.15,13.28,2.44,0,4.74.03,6.91.06,4,.06,7.56.11,10.72-.06,12.9-.85,19.45-3.46,26.24-11.75,11.2-13.43,116.32-145.07,117.15-146.1-.39,1.4-49.75,180.31-51.97,189.1,0,0,9.86.14,20.4.14,38.09,0,54.2-17.09,60.58-41.85,1.18-4.31,69.97-256.06,78.99-289.38h-19.85ZM1664.02,273.37c-1.72-3.91-4.2-9.58-2.6-15.23l-.04-.02c2.36-8.77.54-11.69-8.41-13.62-3.55-.77-14.27-9.33-27.43-19.84-8.68-6.93-18.41-14.7-27.84-21.64-12.35-9.09-24.19-16.75-32.46-19.23-.79-.34-.96-1.16-1.2-2.24-.63-2.91-1.69-7.79-16.1-10.83-8.86-2.24-12.04-5.09-15.7-8.36-1.33-1.19-2.73-2.44-4.49-3.73-6.59-4.72-17.02-11.82-25.8-9.75-4.29-6.28-9.61-10.05-14.77-13.72-1.95-1.38-3.87-2.74-5.69-4.22-6.89-5.57-13.17-13.08-14.01-15.73-2.84.98,3.21,25.44,3.21,25.44,0,0-13.04-10.84-21.38-15.02-5.76-2.86-7.7-8.26-8.95-11.74-.28-.8-.54-1.49-.79-2.03-.25-.54-.51-.93-.8-1.1-2.36,1.53,7.3,34.41,7.3,34.41,0,0,10.54,4.18,11.38,7.64-7.7,1.94-25.66,10.29-25.66,10.29-.28.14-.53.24-.75.33-.43.19-.73.31-.91.52,0,0-9.09.41-9.59.41-7.83-.22-11.61-1.31-15.52-2.43-5.98-1.72-12.27-3.53-33.75-2.43-17.8.98-38.63-1.88-39-1.93.37.34,24.33,22.25,48.02,22.25,0,0-17.43,3.46-44.91.99-60.38-5.57-75.78,21.7-75.78,21.7,0,0,24.41-6.11,38.6-3.06,20.46,4.54,23.25,8.6,24.33,10.18.23.34.39.57.62.65-.91-.29-19.24-6.13-37.31-1.92-55.59,13.21-61.9,16.27-75.78,23.37-25.67,12.23-31.44,20.18-29.92,23.1,24.72-5.3,51.77,2.38,57.82,10.43-.56,2.1-1.7,2.86-2.71,3.54-1.01.67-1.89,1.26-1.95,2.99,3.41,5.71,6.18,16.68,6.72,20.72-1.79,3.19-2.64,4.99-1.66,7.64,2.73,1.5,5.99,5.41,9.12,9.17.77.93,1.55,1.86,2.3,2.73.75.88,1.49,1.7,2.2,2.44v.17c0,1.04.02,2.95-1.93,4.14-.77.48-1.89.71-2.87.9-1.31.26-2.36.47-2.05,1.17,0,1.93,1.24,4.59,3.41,5.84.4.85,0,3.06,0,3.06-2.24,1.8-7.17,3.46-10.27,4.04-.19,4.43,3.53,5.33,6.19,5.97,1.17.29,2.15.52,2.49.99.71,1.12,1.25,4.45.27,5,0,0-2.51-.27-3.21,1.12-.38.93-.09,2.31.25,3.9.53,2.51,1.18,5.56-.52,8.2-.77,1.53-10.08,1.77-15.3,1.9-.29,0-.58.02-.84.02-.15,0-.29,0-.44.01-4.79,3.33-9.59,8.9-11.78,13.21,2.5,2.07,8.95,8.05,10.97,10.97.71,1.12,1.83,4.04,2.63,7.37,13,12.1,22.7,16.23,29.75,19.24,1.55.66,2.96,1.26,4.26,1.88,5.17,2.49,9.25,4.82,12.87,6.89,2.46,1.41,4.7,2.69,6.92,3.81.98-1.39,4.66-5.3,8.11-7.24,3.41-2.07,39.98-36.65,41.57-38.59,1.52.54,2.37.85,2.37.85,0,0,4.39-5.85,4.66-7.1l.08-.9h0c.94-10.24,1.62-17.7,3.2-20.81,1.23-2.2,4.02-6.72,6.94-11.46l.03-.05c1.31-2.12,2.64-4.28,3.86-6.29.48-.76.96-1.07,1.43-1.38.48-.32.95-.63,1.41-1.41,2.36-6.83,10.53-27.61,11.65-30.13,1.03-.15,2.93-.39,5.32-.68,4.06-.5,9.49-1.17,14.32-1.9,4.83-.73,9.06-1.53,10.69-2.27-.32.6-1.16,2.48-2.32,5.1-3.96,8.89-11.68,26.24-15.38,30.43,0,0-.71,1.39-1.96,3.46.98,1.67,1.79,3.46,1.96,4.45-.19,1.61-1.68,3.59-3.15,5.53-.7.93-1.39,1.84-1.92,2.69.05.22.45.49.93.82.71.48,1.59,1.08,1.84,1.84,0,.9,0,2.61-.03,4.19-.03,1.58-.1,3.05-.23,3.45-.13.26-.42.65-.72,1.05-.32.44-.66.89-.8,1.19.06.18.32.58.57,1,.33.52.68,1.07.68,1.24.39,2.16-.22,5.19-.39,6.03v.09c-.11.48-.68,1.58-1.21,2.58-.22.43-.43.85-.6,1.19.27,2.65-.71,6.39-1.66,8.49-1.52,4.59-12.63,13.62-17.29,15.59-1.66.99-6.86,7.64-6.86,7.64,0,0,3.55,9.03,1.79,11.82-15.2,25.51-46.77,53.91-59.27,63.62-3.56,2.83-16.4-.56-32.72-4.87-13.24-3.5-28.78-7.6-43.49-9.47-19.66,19.06-46.5,35.53-80.44,45.42-.14.07-.24.14-.34.2-.05.03-.09.06-.15.1-.06.03-.12.07-.19.11,0,0,15.61,1.66,37.9-3.47l46.77,56.83c8.68,15.15,37.76,58.22,37.76,58.22,0,0-6.45,13.35-6.99,16.85-12.5,5.84-52.35,34.99-52.35,34.99,0,0-13.48-2.92-23.74,8.76-5.34,5.3-10.68-.54-10.68-.54,0,0-9.02-9.89-14.45-9.31-5.34.54-10.27-2.92-10.27-2.92l-33.09,26.29s-3.25,3.46,1.66,4.59c4.79,1.12,26.51,7.37,26.51,7.37,0,0,8.1,3.6,15.67-.54,8.68,1.8,32.82,0,43.66-4.04,10.84-4.04,67.54-40.25,67.54-40.25l8.68-1.66s24.28-17.39,26.51-23.24c2.09-5.84-1.12-16.27-1.12-16.27,0,0-18.95-34.99-21.51-46.67-2.77-11.55-19.49-71-19.49-71l20.6,5.3s17.29,27.75,50.79,16c6.99.67,17.01,2.5,28.8,4.67,8.09,1.49,17.02,3.12,26.37,4.64,35.26,5.71,70.31,9.88,71.5,9.88,2.23,5.85,4.36,8.49,4.36,8.49l-29.62,53.6s-14.02,8.76-11.96,29.28c.13,1.26-8.88,9.44-8.88,9.44,0,0-3.68-1.66-7.43-1.25-3.54.41-6.89,4.31-6.89,4.31l-12.76-3.64-26.92,28.3s-1.92,1.8,1.12,2.38c.77.14,2.65.39,5.1.7h0c7.07.91,18.89,2.44,22.45,3.88,3.91,1.58,6.84-1.55,8.46-3.29.36-.39.66-.71.89-.89.53-.42,1.89-.58,3.55-.77,2.27-.27,5.09-.6,7.12-1.74,1.66-.91,6.07-4.07,10.58-7.3,2.55-1.83,5.13-3.68,7.27-5.16,2.14-1.48,3.84-2.6,4.64-2.96.16-.08.36-.17.59-.27,1.42-.64,3.96-1.78,6.74-3.8,4.68-3.42,10.03-9.34,11.75-19.57,2.84-17.12,31.17-64.48,31.17-64.48,0,0,5.34-2.24,10.13-11.42.79-1.52,1.56-2.9,2.29-4.21,3.65-6.57,6.22-11.2,5.68-21.54-.61-11.31-9.24-20.87-15.01-27.26-.56-.61-1.08-1.2-1.57-1.75-3.02-3.27-16.75-7.66-30.38-12.01-11.84-3.78-23.59-7.54-28.14-10.51-7.9-5.18-29.66-15.6-37.59-19.34-1.84-.87-2.94-1.38-2.94-1.38,0,0,.08-.06.22-.17,1.73-1.38,12.71-11.44,2.82-37.74,16.04-28.57,17.15-42.09,13.47-60.57l93.31-89.82.17-.16s1.08.5,3.03,1.29h0c9.54,3.87,39.75,14.66,64.37,7.61,25.97,7.78,39.42,9.44,47.62,10.02,8.28.54,12.49,8.35,14.59,12.22h0c2.09,3.91,7.56,9.18,16.71,4.46,0,0,3.68-3.46,10-1.39,6.18,1.93,7.56-6.53,6.18-9.17,3.71.79,4.55-.3,6.07-2.25.39-.5.82-1.06,1.36-1.66,2.97-3.33,6.18-8.49,9.59-15.15.18-.85-.5-2.4-1.38-4.42ZM1661.45,258.05l-.03.09.09.05-.07-.14Z"/>
</svg>